# xmcd
#
# Track frame offsets:
# 150
# 9520
# 20907
# 30932
# 44827
# 57362
# 68252
# 84650
# 98415
# 113910
# 135190
# 152622
# 166912
# 176225
# 192517
# 202457
# 215425
# 226215
# 242097
# 255882
#
# Disc length: 3579 seconds
#
#
# Revision: 4
# Processed by: cddbd v1.5.1PL0 Copyright (c) Steve Scherf et al.
# Submitted via: FreeRIP 2.93 
#
DISCID=080df914
DTITLE=Various Artist - America Forever
DYEAR=1900
DGENRE=Country
TTITLE0=Chet Atkins - Yankee Doodle Dixie
TTITLE1=Eddy Arnold - Battle Of New Orleans
TTITLE2=George Hamilton - Abilene
TTITLE3=Dolly Parton - Coat Of Many Colors
TTITLE4=Hank Snow - I've Been Everywhere
TTITLE5=Floyd Cramer - Shenandoah
TTITLE6=WAYLON JENNINGS - America
TTITLE7=John Hartford - Gentle On My Mind
TTITLE8=Earl Thomas Conley - Smokey Mountain Memories
TTITLE9=Alabama - American Pride
TTITLE10=Steve Goodman - City Of New Orleans
TTITLE11=Lee Greenwood - God Bless The USA
TTITLE12=Dottie West - Country Sunshine
TTITLE13=Restless Heart - Big Dreams In A Small Town
TTITLE14=Jerry Reed - Are You From Dixe (Cause I'm From Dixie Too)
TTITLE15=MERLE HAGGARD - The Fightin' Side Of Me
TTITLE16=Charley Pride - Missisippi Cotton Picking Delta Town
TTITLE17=Shenandoah - Hey Mister (I Need This Job)
TTITLE18=Aaron Tippin - You've Got To Stand For Something
TTITLE19=Bobby Bare - Bless America Again
EXTD=ID3G: 2
EXTT0=
EXTT1=
EXTT2=
EXTT3=
EXTT4=
EXTT5=
EXTT6=
EXTT7=
EXTT8=
EXTT9=
EXTT10=
EXTT11=
EXTT12=
EXTT13=
EXTT14=
EXTT15=
EXTT16=
EXTT17=
EXTT18=
EXTT19=
PLAYORDER=
